<svg viewBox="0 0 659 26" fill="currentColor" xmlns="http://www.w3.org/2000/svg">
<path d="M289.898 23.4519C301.987 21.6085 299.86 4.23072 289.898 2.10999C195.408 11.9718 98.3819 8.85426 0.519531 13.155C97.9137 17.614 192.51 11.4791 289.898 23.4519Z" fill="currentColor"/>
<path d="M341.299 12.7836C341.299 19.6691 335.983 25.2509 329.425 25.2509C322.868 25.2509 317.552 19.6691 317.552 12.7836C317.552 5.89804 322.868 0.315979 329.425 0.315979C335.983 0.315979 341.299 5.89774 341.299 12.7836Z" fill="currentColor"/>
<path d="M368.969 23.4519C356.88 21.6085 359.007 4.23072 368.969 2.10999C463.459 11.9718 560.485 8.85426 658.347 13.155C560.953 17.614 466.357 11.4791 368.969 23.4519Z" fill="currentColor"/>
</svg>
